<?xml version="1.0" encoding="utf-8"?>
<!-- Generator: Adobe Illustrator 28.0.0, SVG Export Plug-In . SVG Version: 6.00 Build 0)  -->
<svg version="1.1" id="Layer_1" xmlns="http://www.w3.org/2000/svg" xmlns:xlink="http://www.w3.org/1999/xlink" x="0px" y="0px"
	 viewBox="0 0 183 162.5" style="enable-background:new 0 0 183 162.5;" xml:space="preserve">
<style type="text/css">
	.st0{fill:#162C5B;}
</style>
<g>
	<path class="st0" d="M55,61.3c1.2,0,1.9,0,2.6,0c22.4,0,44.8,0,67.2,0c2.8,0,2.8,0,1.5-2.4c-7.9-15.2-15.7-30.5-23.6-45.7
		c-2.1-4.2-1.8-7.3,1-9.8c3.4-3.1,7.9-2.7,10.7,1c0.7,0.9,1.3,2,1.8,3c9,17.3,18,34.5,26.9,51.9c0.8,1.6,1.7,2.1,3.4,2.1
		c8.6-0.1,17.2-0.1,25.7,0c3.1,0,5.9,0.8,7.6,3.8c2.4,4.3,0.2,9.5-4.5,10.6c-0.8,0.2-1.6,0.4-2.4,0.4c-1.8,0.2-4.1-0.7-5.3,0.4
		c-1.4,1.2-1.3,3.7-1.8,5.6c-5.2,20.8-10.4,41.6-15.6,62.4c-2.7,10.7-10.3,16.6-21.3,16.6c-25.2,0-50.3,0-75.5,0
		c-11.2,0-18.7-6-21.4-16.8c-5.5-21.9-11-43.9-16.4-65.8c-0.4-1.8-1.1-2.6-3-2.3c-1.1,0.1-2.2,0.1-3.2,0c-4.8-0.2-8-3.2-8-7.5
		c0-4.3,3.2-7.3,8.1-7.3c8.4-0.1,16.8-0.1,25.2,0c2.5,0.1,3.8-0.7,4.9-3c8.7-17,17.6-34,26.4-51c0.5-1,1-1.9,1.6-2.8
		c2.4-3.3,6-4.2,9.4-2.3c3.4,1.9,4.8,5.5,3.1,9.2c-1.7,3.8-3.7,7.5-5.6,11.1c-6.2,12-12.4,24-18.5,35.9C55.9,59.3,55.5,60.1,55,61.3
		z M91.5,76.1c-19.5,0-39,0-58.5,0c-1.8,0-2.5,0.2-2,2.3c5.3,21,10.6,42.1,15.9,63.1c0.9,3.6,2.4,4.7,6,4.7c25.6,0,51.2,0,76.7,0
		c3.7,0,5.5-1.4,6.4-5c5.2-20.8,10.3-41.6,15.6-62.4c0.6-2.4,0-2.7-2.2-2.7C130.1,76.2,110.8,76.1,91.5,76.1z"/>
	<path class="st0" d="M61,93.7c0,4-3.4,7.4-7.3,7.3c-3.9,0-7.3-3.5-7.2-7.4c0-4,3.4-7.4,7.3-7.3C57.7,86.4,61,89.8,61,93.7z"/>
	<path class="st0" d="M121.5,93.7c0-3.9,3.3-7.4,7.2-7.4c3.9,0,7.3,3.4,7.3,7.3c0,3.9-3.3,7.4-7.2,7.4
		C124.9,101.1,121.5,97.7,121.5,93.7z"/>
</g>
</svg>
