<?xml version="1.0" encoding="utf-8"?>
<!-- Generator: Adobe Illustrator 28.0.0, SVG Export Plug-In . SVG Version: 6.00 Build 0)  -->
<svg version="1.1" id="Layer_1" xmlns="http://www.w3.org/2000/svg" xmlns:xlink="http://www.w3.org/1999/xlink" x="0px" y="0px"
	 viewBox="0 0 800 240" style="enable-background:new 0 0 800 240;" xml:space="preserve">
<style type="text/css">
	.st0{fill:#A6A6A6;}
	.st1{fill:#FFFFFF;stroke:#FFFFFF;stroke-width:1.1852;stroke-miterlimit:59.2593;}
	.st2{fill:#FFFFFF;}
	.st3{fill:url(#SVGID_1_);}
	.st4{fill:url(#SVGID_00000083052598771166355440000003475237245288324258_);}
	.st5{fill:url(#SVGID_00000041982449479687927150000013198285491149925040_);}
	.st6{fill:url(#SVGID_00000071536924677571364550000016756689625433318035_);}
	.st7{opacity:0.2;enable-background:new    ;}
	.st8{opacity:0.12;enable-background:new    ;}
	.st9{opacity:0.25;fill:#FFFFFF;enable-background:new    ;}
</style>
<path d="M770.4,238.5H29.6C13,238.5,0,225.5,0,208.9V31.1C0,14.5,13,1.5,29.6,1.5h740.7c16.6,0,29.6,13,29.6,29.6v177.8
	C800,225.5,787,238.5,770.4,238.5z"/>
<path class="st0" d="M770.4,6.2c13.6,0,24.9,11.3,24.9,24.9v177.8c0,13.6-11.3,24.9-24.9,24.9H29.6c-13.6,0-24.9-11.3-24.9-24.9
	V31.1C4.7,17.5,16,6.2,29.6,6.2H770.4 M770.4,1.5H29.6C13,1.5,0,15.1,0,31.1v177.8c0,16.6,13,29.6,29.6,29.6h740.7
	c16.6,0,29.6-13,29.6-29.6V31.1C800,15.1,787,1.5,770.4,1.5z"/>
<path class="st1" d="M280.9,61.9c0,4.7-1.2,8.9-4.1,11.9c-3.6,3.6-7.7,5.3-13,5.3s-9.5-1.8-13-5.3c-3.6-3.6-5.3-7.7-5.3-13
	s1.8-9.5,5.3-13c3.6-3.6,7.7-5.3,13-5.3c2.4,0,4.7,0.6,7.1,1.8c2.4,1.2,4.1,2.4,5.3,4.1l-3,3c-2.4-3-5.3-4.1-9.5-4.1
	c-3.6,0-7.1,1.2-9.5,4.1c-3,2.4-4.1,5.9-4.1,10.1s1.2,7.7,4.1,10.1s5.9,4.1,9.5,4.1c4.1,0,7.1-1.2,10.1-4.1c1.8-1.8,3-4.1,3-7.1h-13
	v-4.7h17.2L280.9,61.9L280.9,61.9z M308.1,47.1h-16v11.3H307v4.1h-14.8v11.3h16v4.7h-20.7V43h20.7V47.1z M327.7,78.5H323V47.1h-10.1
	V43h24.9v4.1h-10.1V78.5z M355,78.5V43h4.7v35.6H355z M379.9,78.5h-4.7V47.1H365V43h24.3v4.1h-10.1v31.4H379.9z M436.1,73.8
	c-3.6,3.6-7.7,5.3-13,5.3c-5.3,0-9.5-1.8-13-5.3s-5.3-7.7-5.3-13s1.8-9.5,5.3-13s7.7-5.3,13-5.3c5.3,0,9.5,1.8,13,5.3
	c3.6,3.6,5.3,7.7,5.3,13S439.7,70.2,436.1,73.8z M413.6,70.8c2.4,2.4,5.9,4.1,9.5,4.1s7.1-1.2,9.5-4.1c2.4-2.4,4.1-5.9,4.1-10.1
	s-1.2-7.7-4.1-10.1c-2.4-2.4-5.9-4.1-9.5-4.1s-7.1,1.2-9.5,4.1c-2.4,2.4-4.1,5.9-4.1,10.1S410.7,68.4,413.6,70.8z M448,78.5V43h5.3
	l17.2,27.9V43h4.7v35.6h-4.7l-18.4-29v29H448L448,78.5z"/>
<path class="st2" d="M403.6,130.7c-14.2,0-25.5,10.7-25.5,25.5c0,14.2,11.3,25.5,25.5,25.5S429,171,429,156.1
	C429,140.7,417.8,130.7,403.6,130.7z M403.6,171c-7.7,0-14.2-6.5-14.2-15.4s6.5-15.4,14.2-15.4c7.7,0,14.2,5.9,14.2,15.4
	C417.8,164.4,411.3,171,403.6,171z M348.4,130.7c-14.2,0-25.5,10.7-25.5,25.5c0,14.2,11.3,25.5,25.5,25.5s25.5-10.7,25.5-25.5
	C373.9,140.7,362.7,130.7,348.4,130.7z M348.4,171c-7.7,0-14.2-6.5-14.2-15.4s6.5-15.4,14.2-15.4c7.7,0,14.2,5.9,14.2,15.4
	C362.7,164.4,356.1,171,348.4,171z M282.7,138.4V149h25.5c-0.6,5.9-3,10.7-5.9,13.6c-3.6,3.6-9.5,7.7-19.6,7.7
	c-16,0-27.9-12.4-27.9-28.4s12.4-28.4,27.9-28.4c8.3,0,14.8,3.6,19.6,7.7l7.7-7.7c-6.5-5.9-14.8-10.7-26.7-10.7
	c-21.3,0-39.7,17.8-39.7,39.1s18.4,39.1,39.7,39.1c11.9,0,20.1-3.6,27.3-11.3c7.1-7.1,9.5-17.2,9.5-24.9c0-2.4,0-4.7-0.6-6.5
	L282.7,138.4L282.7,138.4z M551.7,146.7c-2.4-5.9-8.3-16-21.3-16c-13,0-23.7,10.1-23.7,25.5c0,14.2,10.7,25.5,24.9,25.5
	c11.3,0,18.4-7.1,20.7-11.3l-8.3-5.9c-3,4.1-6.5,7.1-12.4,7.1c-5.9,0-9.5-2.4-12.4-7.7l33.8-14.2L551.7,146.7L551.7,146.7z
	 M517.3,155c0-9.5,7.7-14.8,13-14.8c4.1,0,8.3,2.4,9.5,5.3L517.3,155L517.3,155z M489.5,179.3h11.3v-74.1h-11.3V179.3z M471.7,136
	c-3-3-7.7-5.9-13.6-5.9c-12.4,0-24.3,11.3-24.3,25.5s11.3,24.9,24.3,24.9c5.9,0,10.7-3,13-5.9h0.6v3.6c0,9.5-5.3,14.8-13.6,14.8
	c-6.5,0-11.3-4.7-12.4-8.9l-9.5,4.1c3,6.5,10.1,14.8,22.5,14.8c13,0,23.7-7.7,23.7-26.1v-45h-10.7L471.7,136L471.7,136z M458.7,171
	c-7.7,0-14.2-6.5-14.2-15.4s6.5-15.4,14.2-15.4c7.7,0,13.6,6.5,13.6,15.4S466.4,171,458.7,171z M603.3,105.2h-26.7v74.1h11.3v-27.9
	h15.4c12.4,0,24.3-8.9,24.3-23.1S615.7,105.2,603.3,105.2z M603.9,140.7h-16v-25.5h16c8.3,0,13,7.1,13,12.4
	C616.3,134.2,611.6,140.7,603.9,140.7L603.9,140.7z M672,130.1c-8.3,0-16.6,3.6-19.6,11.3l10.1,4.1c2.4-4.1,5.9-5.3,10.1-5.3
	c5.9,0,11.3,3.6,11.9,9.5v0.6c-1.8-1.2-6.5-3-11.3-3c-10.7,0-21.3,5.9-21.3,16.6c0,10.1,8.9,16.6,18.4,16.6c7.7,0,11.3-3.6,14.2-7.1
	h0.6v5.9h10.7v-28.4C694.5,137.8,684.4,130.1,672,130.1L672,130.1z M670.8,171c-3.6,0-8.9-1.8-8.9-6.5c0-5.9,6.5-7.7,11.9-7.7
	c4.7,0,7.1,1.2,10.1,2.4C682.7,166.2,676.7,171,670.8,171z M733,131.9l-12.4,32H720l-13-32h-11.9l19.6,45l-11.3,24.9h11.3l30.2-69.9
	H733L733,131.9z M633.5,179.3h11.3v-74.1h-11.3V179.3z"/>
<g>
	
		<linearGradient id="SVGID_1_" gradientUnits="userSpaceOnUse" x1="106.5828" y1="490.0843" x2="89.7998" y2="506.8662" gradientTransform="matrix(5.9259 0 0 5.9259 -502.4444 -2851.1343)">
		<stop  offset="0" style="stop-color:#00A0FF"/>
		<stop  offset="7.000001e-03" style="stop-color:#00A1FF"/>
		<stop  offset="0.26" style="stop-color:#00BEFF"/>
		<stop  offset="0.512" style="stop-color:#00D2FF"/>
		<stop  offset="0.76" style="stop-color:#00DFFF"/>
		<stop  offset="1" style="stop-color:#00E3FF"/>
	</linearGradient>
	<path class="st3" d="M61.6,45.9c-1.8,1.8-2.4,4.7-2.4,8.3v131c0,3.6,1.2,6.5,3,8.3l0.6,0.6l73.5-73.5v-1.2L61.6,45.9z"/>
	
		<linearGradient id="SVGID_00000016059611488226190430000000530946897609221043_" gradientUnits="userSpaceOnUse" x1="118.6215" y1="501.4289" x2="94.4245" y2="501.4289" gradientTransform="matrix(5.9259 0 0 5.9259 -502.4444 -2851.1343)">
		<stop  offset="0" style="stop-color:#FFE000"/>
		<stop  offset="0.409" style="stop-color:#FFBD00"/>
		<stop  offset="0.775" style="stop-color:#FFA500"/>
		<stop  offset="1" style="stop-color:#FF9C00"/>
	</linearGradient>
	<path style="fill:url(#SVGID_00000016059611488226190430000000530946897609221043_);" d="M160,145.5l-24.3-24.3v-1.8L160,95.1
		l0.6,0.6l29,16.6c8.3,4.7,8.3,12.4,0,17.2L160,145.5z"/>
	
		<linearGradient id="SVGID_00000004505676348223476140000007442463455885760446_" gradientUnits="userSpaceOnUse" x1="109.603" y1="503.6634" x2="86.845" y2="526.4214" gradientTransform="matrix(5.9259 0 0 5.9259 -502.4444 -2851.1343)">
		<stop  offset="0" style="stop-color:#FF3A44"/>
		<stop  offset="1" style="stop-color:#C31162"/>
	</linearGradient>
	<path style="fill:url(#SVGID_00000004505676348223476140000007442463455885760446_);" d="M160.6,144.9L135.7,120l-74.1,74.1
		c3,3,7.1,3,12.4,0.6L160.6,144.9"/>
	
		<linearGradient id="SVGID_00000065788774205646294380000014315850157268530104_" gradientUnits="userSpaceOnUse" x1="92.049" y1="481.5904" x2="102.212" y2="491.7534" gradientTransform="matrix(5.9259 0 0 5.9259 -502.4444 -2851.1343)">
		<stop  offset="0" style="stop-color:#32A071"/>
		<stop  offset="6.900000e-02" style="stop-color:#2DA771"/>
		<stop  offset="0.476" style="stop-color:#15CF74"/>
		<stop  offset="0.801" style="stop-color:#06E775"/>
		<stop  offset="1" style="stop-color:#00F076"/>
	</linearGradient>
	<path style="fill:url(#SVGID_00000065788774205646294380000014315850157268530104_);" d="M160.6,95.1L74.1,45.9
		c-5.3-3-9.5-2.4-12.4,0.6l74.1,73.5L160.6,95.1L160.6,95.1z"/>
	<path class="st7" d="M160,144.3l-85.9,48.6c-4.7,3-8.9,2.4-11.9,0l-0.6,0.6l0.6,0.6c3,2.4,7.1,3,11.9,0L160,144.3z"/>
	<path class="st8" d="M61.6,192.9c-1.8-1.8-2.4-4.7-2.4-8.3v0.6c0,3.6,1.2,6.5,3,8.3v-0.6L61.6,192.9L61.6,192.9z M189.6,127.7
		L160,144.3l0.6,0.6l29-16.6c4.1-2.4,5.9-5.3,5.9-8.3C195.6,123,193.2,125.3,189.6,127.7z"/>
	<path class="st9" d="M74.1,46.5l115.6,65.8c3.6,2.4,5.9,4.7,5.9,7.7c0-3-1.8-5.9-5.9-8.3L74.1,45.9c-8.3-4.7-14.8-1.2-14.8,8.3v0.6
		C59.3,45.9,65.8,41.8,74.1,46.5z"/>
</g>
</svg>
