<?xml version="1.0" encoding="utf-8"?>
<!-- Generator: Adobe Illustrator 28.0.0, SVG Export Plug-In . SVG Version: 6.00 Build 0)  -->
<svg version="1.1" id="Layer_1" xmlns="http://www.w3.org/2000/svg" xmlns:xlink="http://www.w3.org/1999/xlink" x="0px" y="0px"
	 viewBox="0 0 185.7 171.1" style="enable-background:new 0 0 185.7 171.1;" xml:space="preserve">
<style type="text/css">
	.st0{fill:#E0E7F0;}
</style>
<g>
	<path class="st0" d="M181.7,168.6c-2.7-0.1-5.4-0.3-8-0.5l0.2-2c2.6,0.2,5.3,0.4,7.9,0.5L181.7,168.6z M165.7,167.3
		c-2.6-0.3-5.3-0.7-7.9-1.2l0.3-2c2.6,0.4,5.2,0.8,7.9,1.2L165.7,167.3z M149.9,164.6c-2.6-0.6-5.2-1.2-7.8-1.8l0.5-1.9
		c2.5,0.7,5.1,1.3,7.7,1.8L149.9,164.6z M134.4,160.6c-2.5-0.8-5.1-1.6-7.6-2.5l0.7-1.9c2.5,0.9,5,1.7,7.6,2.5L134.4,160.6z
		 M119.2,155.2c-2.5-1-5-2.1-7.4-3.2l0.8-1.8c2.4,1.1,4.9,2.1,7.3,3.1L119.2,155.2z M104.5,148.6c-2.4-1.2-4.8-2.5-7.1-3.8l1-1.7
		c2.3,1.3,4.7,2.5,7,3.7L104.5,148.6z M90.5,140.8c-2.3-1.4-4.5-2.9-6.7-4.4l1.1-1.7c2.2,1.5,4.4,2.9,6.7,4.3L90.5,140.8z
		 M77.2,131.8c-2.1-1.6-4.3-3.2-6.3-4.9l1.3-1.6c2.1,1.7,4.2,3.3,6.3,4.9L77.2,131.8z M64.8,121.7c-2-1.8-4-3.6-5.9-5.4l1.4-1.4
		c1.9,1.8,3.9,3.6,5.8,5.4L64.8,121.7z M53.2,110.6c-1.9-1.9-3.7-3.9-5.4-5.9l1.5-1.3c1.7,2,3.5,3.9,5.4,5.8L53.2,110.6z M42.6,98.5
		c-1.7-2.1-3.3-4.2-4.9-6.3l1.6-1.2c1.6,2.1,3.2,4.2,4.9,6.3L42.6,98.5z M33,85.7c-1.5-2.2-3-4.5-4.4-6.7l1.7-1.1
		c1.4,2.2,2.8,4.5,4.3,6.7L33,85.7z M24.6,72c-1.3-2.3-2.6-4.7-3.8-7.1l1.8-0.9c1.2,2.3,2.4,4.7,3.7,7L24.6,72z M17.4,57.8
		c-1.1-2.4-2.2-4.9-3.1-7.4l1.9-0.7c1,2.4,2,4.9,3.1,7.3L17.4,57.8z M11.4,42.9c-0.9-2.5-1.7-5.1-2.5-7.6l1.9-0.6
		c0.8,2.5,1.6,5.1,2.5,7.5L11.4,42.9z M6.7,27.6C6,25,5.4,22.4,4.8,19.8l2-0.4c0.6,2.6,1.2,5.2,1.8,7.7L6.7,27.6z M3.3,11.9
		C2.9,9.3,2.5,6.6,2.1,3.9l2-0.3C4.5,6.3,4.8,9,5.3,11.5L3.3,11.9z"/>
</g>
</svg>
