<?xml version="1.0" encoding="utf-8"?>
<!-- Generator: Adobe Illustrator 28.0.0, SVG Export Plug-In . SVG Version: 6.00 Build 0)  -->
<svg version="1.1" id="Layer_1" xmlns="http://www.w3.org/2000/svg" xmlns:xlink="http://www.w3.org/1999/xlink" x="0px" y="0px"
	 viewBox="0 0 119 89.2" style="enable-background:new 0 0 119 89.2;" xml:space="preserve">
<style type="text/css">
	.st0{fill:#322955;}
</style>
<g>
	<circle class="st0" cx="117.6" cy="88" r="1"/>
	<circle class="st0" cx="114.3" cy="88" r="1"/>
	<circle class="st0" cx="111" cy="88" r="1"/>
	<circle class="st0" cx="107.7" cy="88" r="1"/>
	<circle class="st0" cx="104.4" cy="88" r="1"/>
	<circle class="st0" cx="101.2" cy="88" r="1"/>
	<circle class="st0" cx="71.6" cy="88" r="1"/>
	<circle class="st0" cx="68.3" cy="88" r="1"/>
	<circle class="st0" cx="65" cy="88" r="1"/>
	<circle class="st0" cx="55.2" cy="88" r="1"/>
	<circle class="st0" cx="51.9" cy="88" r="1"/>
	<circle class="st0" cx="48.6" cy="88" r="1"/>
	<circle class="st0" cx="45.3" cy="88" r="1"/>
	<circle class="st0" cx="42" cy="88" r="1"/>
	<circle class="st0" cx="38.8" cy="88" r="1"/>
	<circle class="st0" cx="35.5" cy="88" r="1"/>
	<circle class="st0" cx="32.2" cy="88" r="1"/>
	<circle class="st0" cx="28.9" cy="88" r="1"/>
	<circle class="st0" cx="25.6" cy="88" r="1"/>
	<circle class="st0" cx="22.3" cy="88" r="1"/>
	<circle class="st0" cx="19.1" cy="88" r="1"/>
	<circle class="st0" cx="15.8" cy="88" r="1"/>
	<circle class="st0" cx="12.5" cy="88" r="1"/>
	<circle class="st0" cx="9.2" cy="88" r="1"/>
	<circle class="st0" cx="5.9" cy="88" r="1"/>
	<circle class="st0" cx="2.6" cy="88" r="1"/>
	<circle class="st0" cx="117.6" cy="84.7" r="1"/>
	<circle class="st0" cx="114.3" cy="84.7" r="1"/>
	<circle class="st0" cx="111" cy="84.7" r="1"/>
	<circle class="st0" cx="107.7" cy="84.7" r="1"/>
	<circle class="st0" cx="104.4" cy="84.7" r="1"/>
	<circle class="st0" cx="101.2" cy="84.7" r="1"/>
	<circle class="st0" cx="97.9" cy="84.7" r="1"/>
	<circle class="st0" cx="45.3" cy="84.7" r="1"/>
	<circle class="st0" cx="42" cy="84.7" r="1"/>
	<circle class="st0" cx="38.8" cy="84.7" r="1"/>
	<circle class="st0" cx="35.5" cy="84.7" r="1"/>
	<circle class="st0" cx="32.2" cy="84.7" r="1"/>
	<circle class="st0" cx="28.9" cy="84.7" r="1"/>
	<circle class="st0" cx="25.6" cy="84.7" r="1"/>
	<circle class="st0" cx="22.3" cy="84.7" r="1"/>
	<circle class="st0" cx="19.1" cy="84.7" r="1"/>
	<circle class="st0" cx="15.8" cy="84.7" r="1"/>
	<circle class="st0" cx="12.5" cy="84.7" r="1"/>
	<circle class="st0" cx="9.2" cy="84.7" r="1"/>
	<circle class="st0" cx="5.9" cy="84.7" r="1"/>
	<circle class="st0" cx="117.6" cy="81.4" r="1"/>
	<circle class="st0" cx="114.3" cy="81.4" r="1"/>
	<circle class="st0" cx="111" cy="81.4" r="1"/>
	<circle class="st0" cx="107.7" cy="81.4" r="1"/>
	<circle class="st0" cx="104.4" cy="81.4" r="1"/>
	<circle class="st0" cx="101.2" cy="81.4" r="1"/>
	<circle class="st0" cx="97.9" cy="81.4" r="1"/>
	<circle class="st0" cx="91.3" cy="81.4" r="1"/>
	<circle class="st0" cx="78.2" cy="81.4" r="1"/>
	<circle class="st0" cx="74.9" cy="81.4" r="1"/>
	<circle class="st0" cx="45.3" cy="81.4" r="1"/>
	<circle class="st0" cx="42" cy="81.4" r="1"/>
	<circle class="st0" cx="38.8" cy="81.4" r="1"/>
	<circle class="st0" cx="35.5" cy="81.4" r="1"/>
	<circle class="st0" cx="32.2" cy="81.4" r="1"/>
	<circle class="st0" cx="28.9" cy="81.4" r="1"/>
	<circle class="st0" cx="25.6" cy="81.4" r="1"/>
	<circle class="st0" cx="22.3" cy="81.4" r="1"/>
	<circle class="st0" cx="19.1" cy="81.4" r="1"/>
	<circle class="st0" cx="15.8" cy="81.4" r="1"/>
	<circle class="st0" cx="12.5" cy="81.4" r="1"/>
	<circle class="st0" cx="117.6" cy="78.1" r="1"/>
	<circle class="st0" cx="114.3" cy="78.1" r="1"/>
	<circle class="st0" cx="111" cy="78.1" r="1"/>
	<circle class="st0" cx="107.7" cy="78.1" r="1"/>
	<circle class="st0" cx="104.4" cy="78.1" r="1"/>
	<circle class="st0" cx="101.2" cy="78.1" r="1"/>
	<circle class="st0" cx="97.9" cy="78.1" r="1"/>
	<circle class="st0" cx="91.3" cy="78.1" r="1"/>
	<circle class="st0" cx="45.3" cy="78.1" r="1"/>
	<circle class="st0" cx="42" cy="78.1" r="1"/>
	<circle class="st0" cx="38.8" cy="78.1" r="1"/>
	<circle class="st0" cx="35.5" cy="78.1" r="1"/>
	<circle class="st0" cx="32.2" cy="78.1" r="1"/>
	<circle class="st0" cx="28.9" cy="78.1" r="1"/>
	<circle class="st0" cx="25.6" cy="78.1" r="1"/>
	<circle class="st0" cx="117.6" cy="74.8" r="1"/>
	<circle class="st0" cx="114.3" cy="74.8" r="1"/>
	<circle class="st0" cx="111" cy="74.8" r="1"/>
	<circle class="st0" cx="107.7" cy="74.8" r="1"/>
	<circle class="st0" cx="104.4" cy="74.8" r="1"/>
	<circle class="st0" cx="101.2" cy="74.8" r="1"/>
	<circle class="st0" cx="97.9" cy="74.8" r="1"/>
	<circle class="st0" cx="94.6" cy="74.8" r="1"/>
	<circle class="st0" cx="91.3" cy="74.8" r="1"/>
	<circle class="st0" cx="88" cy="74.8" r="1"/>
	<circle class="st0" cx="84.7" cy="74.8" r="1"/>
	<circle class="st0" cx="81.4" cy="74.8" r="1"/>
	<circle class="st0" cx="68.3" cy="74.8" r="1"/>
	<circle class="st0" cx="55.2" cy="74.8" r="1"/>
	<circle class="st0" cx="51.9" cy="74.8" r="1"/>
	<circle class="st0" cx="19.1" cy="74.8" r="1"/>
	<circle class="st0" cx="15.8" cy="74.8" r="1"/>
	<circle class="st0" cx="12.5" cy="74.8" r="1"/>
	<circle class="st0" cx="9.2" cy="74.8" r="1"/>
	<circle class="st0" cx="5.9" cy="74.8" r="1"/>
	<circle class="st0" cx="117.6" cy="71.5" r="1"/>
	<circle class="st0" cx="114.3" cy="71.5" r="1"/>
	<circle class="st0" cx="111" cy="71.5" r="1"/>
	<circle class="st0" cx="107.7" cy="71.5" r="1"/>
	<circle class="st0" cx="104.4" cy="71.5" r="1"/>
	<circle class="st0" cx="101.2" cy="71.5" r="1"/>
	<circle class="st0" cx="97.9" cy="71.5" r="1"/>
	<circle class="st0" cx="94.6" cy="71.5" r="1"/>
	<circle class="st0" cx="91.3" cy="71.5" r="1"/>
	<circle class="st0" cx="88" cy="71.5" r="1"/>
	<circle class="st0" cx="84.7" cy="71.5" r="1"/>
	<circle class="st0" cx="81.4" cy="71.5" r="1"/>
	<circle class="st0" cx="78.2" cy="71.5" r="1"/>
	<circle class="st0" cx="68.3" cy="71.5" r="1"/>
	<circle class="st0" cx="65" cy="71.5" r="1"/>
	<circle class="st0" cx="58.5" cy="71.5" r="1"/>
	<circle class="st0" cx="55.2" cy="71.5" r="1"/>
	<circle class="st0" cx="42" cy="71.5" r="1"/>
	<circle class="st0" cx="28.9" cy="71.5" r="1"/>
	<circle class="st0" cx="22.3" cy="71.5" r="1"/>
	<circle class="st0" cx="19.1" cy="71.5" r="1"/>
	<circle class="st0" cx="15.8" cy="71.5" r="1"/>
	<circle class="st0" cx="12.5" cy="71.5" r="1"/>
	<circle class="st0" cx="9.2" cy="71.5" r="1"/>
	<circle class="st0" cx="117.6" cy="68.3" r="1"/>
	<circle class="st0" cx="114.3" cy="68.3" r="1"/>
	<circle class="st0" cx="111" cy="68.3" r="1"/>
	<circle class="st0" cx="107.7" cy="68.3" r="1"/>
	<circle class="st0" cx="104.4" cy="68.3" r="1"/>
	<circle class="st0" cx="101.2" cy="68.3" r="1"/>
	<circle class="st0" cx="97.9" cy="68.3" r="1"/>
	<circle class="st0" cx="94.6" cy="68.3" r="1"/>
	<circle class="st0" cx="91.3" cy="68.3" r="1"/>
	<circle class="st0" cx="88" cy="68.3" r="1"/>
	<circle class="st0" cx="84.7" cy="68.3" r="1"/>
	<circle class="st0" cx="78.2" cy="68.3" r="1"/>
	<circle class="st0" cx="71.6" cy="68.3" r="1"/>
	<circle class="st0" cx="68.3" cy="68.3" r="1"/>
	<circle class="st0" cx="65" cy="68.3" r="1"/>
	<circle class="st0" cx="58.5" cy="68.3" r="1"/>
	<circle class="st0" cx="55.2" cy="68.3" r="1"/>
	<circle class="st0" cx="22.3" cy="68.3" r="1"/>
	<circle class="st0" cx="19.1" cy="68.3" r="1"/>
	<circle class="st0" cx="12.5" cy="68.3" r="1"/>
	<circle class="st0" cx="9.2" cy="68.3" r="1"/>
	<circle class="st0" cx="5.9" cy="68.3" r="1"/>
	<circle class="st0" cx="117.6" cy="65" r="1"/>
	<circle class="st0" cx="114.3" cy="65" r="1"/>
	<circle class="st0" cx="111" cy="65" r="1"/>
	<circle class="st0" cx="107.7" cy="65" r="1"/>
	<circle class="st0" cx="94.6" cy="65" r="1"/>
	<circle class="st0" cx="91.3" cy="65" r="1"/>
	<circle class="st0" cx="88" cy="65" r="1"/>
	<circle class="st0" cx="78.2" cy="65" r="1"/>
	<circle class="st0" cx="74.9" cy="65" r="1"/>
	<circle class="st0" cx="71.6" cy="65" r="1"/>
	<circle class="st0" cx="68.3" cy="65" r="1"/>
	<circle class="st0" cx="65" cy="65" r="1"/>
	<circle class="st0" cx="61.7" cy="65" r="1"/>
	<circle class="st0" cx="55.2" cy="65" r="1"/>
	<circle class="st0" cx="51.9" cy="65" r="1"/>
	<circle class="st0" cx="42" cy="65" r="1"/>
	<circle class="st0" cx="22.3" cy="65" r="1"/>
	<circle class="st0" cx="19.1" cy="65" r="1"/>
	<circle class="st0" cx="15.8" cy="65" r="1"/>
	<circle class="st0" cx="12.5" cy="65" r="1"/>
	<circle class="st0" cx="117.6" cy="61.7" r="1"/>
	<circle class="st0" cx="114.3" cy="61.7" r="1"/>
	<circle class="st0" cx="111" cy="61.7" r="1"/>
	<circle class="st0" cx="107.7" cy="61.7" r="1"/>
	<circle class="st0" cx="104.4" cy="61.7" r="1"/>
	<circle class="st0" cx="78.2" cy="61.7" r="1"/>
	<circle class="st0" cx="74.9" cy="61.7" r="1"/>
	<circle class="st0" cx="71.6" cy="61.7" r="1"/>
	<circle class="st0" cx="68.3" cy="61.7" r="1"/>
	<circle class="st0" cx="65" cy="61.7" r="1"/>
	<circle class="st0" cx="61.7" cy="61.7" r="1"/>
	<circle class="st0" cx="58.5" cy="61.7" r="1"/>
	<circle class="st0" cx="51.9" cy="61.7" r="1"/>
	<circle class="st0" cx="48.6" cy="61.7" r="1"/>
	<circle class="st0" cx="35.5" cy="61.7" r="1"/>
	<circle class="st0" cx="28.9" cy="61.7" r="1"/>
	<circle class="st0" cx="25.6" cy="61.7" r="1"/>
	<circle class="st0" cx="22.3" cy="61.7" r="1"/>
	<circle class="st0" cx="19.1" cy="61.7" r="1"/>
	<circle class="st0" cx="15.8" cy="61.7" r="1"/>
	<circle class="st0" cx="12.5" cy="61.7" r="1"/>
	<circle class="st0" cx="9.2" cy="61.7" r="1"/>
	<circle class="st0" cx="114.3" cy="58.4" r="1"/>
	<circle class="st0" cx="111" cy="58.4" r="1"/>
	<circle class="st0" cx="107.7" cy="58.4" r="1"/>
	<circle class="st0" cx="104.4" cy="58.4" r="1"/>
	<circle class="st0" cx="101.2" cy="58.4" r="1"/>
	<circle class="st0" cx="91.3" cy="58.4" r="1"/>
	<circle class="st0" cx="81.4" cy="58.4" r="1"/>
	<circle class="st0" cx="78.2" cy="58.4" r="1"/>
	<circle class="st0" cx="74.9" cy="58.4" r="1"/>
	<circle class="st0" cx="71.6" cy="58.4" r="1"/>
	<circle class="st0" cx="68.3" cy="58.4" r="1"/>
	<circle class="st0" cx="65" cy="58.4" r="1"/>
	<circle class="st0" cx="61.7" cy="58.4" r="1"/>
	<circle class="st0" cx="58.5" cy="58.4" r="1"/>
	<circle class="st0" cx="55.2" cy="58.4" r="1"/>
	<circle class="st0" cx="48.6" cy="58.4" r="1"/>
	<circle class="st0" cx="45.3" cy="58.4" r="1"/>
	<circle class="st0" cx="42" cy="58.4" r="1"/>
	<circle class="st0" cx="38.8" cy="58.4" r="1"/>
	<circle class="st0" cx="35.5" cy="58.4" r="1"/>
	<circle class="st0" cx="32.2" cy="58.4" r="1"/>
	<circle class="st0" cx="28.9" cy="58.4" r="1"/>
	<circle class="st0" cx="25.6" cy="58.4" r="1"/>
	<circle class="st0" cx="22.3" cy="58.4" r="1"/>
	<circle class="st0" cx="117.6" cy="55.1" r="1"/>
	<circle class="st0" cx="114.3" cy="55.1" r="1"/>
	<circle class="st0" cx="111" cy="55.1" r="1"/>
	<circle class="st0" cx="107.7" cy="55.1" r="1"/>
	<circle class="st0" cx="104.4" cy="55.1" r="1"/>
	<circle class="st0" cx="101.2" cy="55.1" r="1"/>
	<circle class="st0" cx="91.3" cy="55.1" r="1"/>
	<circle class="st0" cx="88" cy="55.1" r="1"/>
	<circle class="st0" cx="81.4" cy="55.1" r="1"/>
	<circle class="st0" cx="78.2" cy="55.1" r="1"/>
	<circle class="st0" cx="74.9" cy="55.1" r="1"/>
	<circle class="st0" cx="71.6" cy="55.1" r="1"/>
	<circle class="st0" cx="68.3" cy="55.1" r="1"/>
	<circle class="st0" cx="65" cy="55.1" r="1"/>
	<circle class="st0" cx="61.7" cy="55.1" r="1"/>
	<circle class="st0" cx="58.5" cy="55.1" r="1"/>
	<circle class="st0" cx="55.2" cy="55.1" r="1"/>
	<circle class="st0" cx="51.9" cy="55.1" r="1"/>
	<circle class="st0" cx="48.6" cy="55.1" r="1"/>
	<circle class="st0" cx="38.8" cy="55.1" r="1"/>
	<circle class="st0" cx="32.2" cy="55.1" r="1"/>
	<circle class="st0" cx="28.9" cy="55.1" r="1"/>
	<circle class="st0" cx="25.6" cy="55.1" r="1"/>
	<circle class="st0" cx="22.3" cy="55.1" r="1"/>
	<circle class="st0" cx="117.6" cy="51.8" r="1"/>
	<circle class="st0" cx="114.3" cy="51.8" r="1"/>
	<circle class="st0" cx="111" cy="51.8" r="1"/>
	<circle class="st0" cx="107.7" cy="51.8" r="1"/>
	<circle class="st0" cx="104.4" cy="51.8" r="1"/>
	<circle class="st0" cx="101.2" cy="51.8" r="1"/>
	<circle class="st0" cx="97.9" cy="51.8" r="1"/>
	<circle class="st0" cx="94.6" cy="51.8" r="1"/>
	<circle class="st0" cx="91.3" cy="51.8" r="1"/>
	<circle class="st0" cx="88" cy="51.8" r="1"/>
	<circle class="st0" cx="84.7" cy="51.8" r="1"/>
	<circle class="st0" cx="81.4" cy="51.8" r="1"/>
	<circle class="st0" cx="78.2" cy="51.8" r="1"/>
	<circle class="st0" cx="74.9" cy="51.8" r="1"/>
	<circle class="st0" cx="71.6" cy="51.8" r="1"/>
	<circle class="st0" cx="68.3" cy="51.8" r="1"/>
	<circle class="st0" cx="65" cy="51.8" r="1"/>
	<circle class="st0" cx="58.5" cy="51.8" r="1"/>
	<circle class="st0" cx="45.3" cy="51.8" r="1"/>
	<circle class="st0" cx="35.5" cy="51.8" r="1"/>
	<circle class="st0" cx="32.2" cy="51.8" r="1"/>
	<circle class="st0" cx="28.9" cy="51.8" r="1"/>
	<circle class="st0" cx="25.6" cy="51.8" r="1"/>
	<circle class="st0" cx="22.3" cy="51.8" r="1"/>
	<circle class="st0" cx="19.1" cy="51.8" r="1"/>
	<circle class="st0" cx="117.6" cy="48.6" r="1"/>
	<circle class="st0" cx="114.3" cy="48.6" r="1"/>
	<circle class="st0" cx="111" cy="48.6" r="1"/>
	<circle class="st0" cx="107.7" cy="48.6" r="1"/>
	<circle class="st0" cx="104.4" cy="48.6" r="1"/>
	<circle class="st0" cx="101.2" cy="48.6" r="1"/>
	<circle class="st0" cx="97.9" cy="48.6" r="1"/>
	<circle class="st0" cx="94.6" cy="48.6" r="1"/>
	<circle class="st0" cx="91.3" cy="48.6" r="1"/>
	<circle class="st0" cx="88" cy="48.6" r="1"/>
	<circle class="st0" cx="84.7" cy="48.6" r="1"/>
	<circle class="st0" cx="81.4" cy="48.6" r="1"/>
	<circle class="st0" cx="78.2" cy="48.6" r="1"/>
	<circle class="st0" cx="74.9" cy="48.6" r="1"/>
	<circle class="st0" cx="71.6" cy="48.6" r="1"/>
	<circle class="st0" cx="68.3" cy="48.6" r="1"/>
	<circle class="st0" cx="65" cy="48.6" r="1"/>
	<circle class="st0" cx="61.7" cy="48.6" r="1"/>
	<circle class="st0" cx="58.5" cy="48.6" r="1"/>
	<circle class="st0" cx="55.2" cy="48.6" r="1"/>
	<circle class="st0" cx="51.9" cy="48.6" r="1"/>
	<circle class="st0" cx="45.3" cy="48.6" r="1"/>
	<circle class="st0" cx="38.8" cy="48.6" r="1"/>
	<circle class="st0" cx="35.5" cy="48.6" r="1"/>
	<circle class="st0" cx="28.9" cy="48.6" r="1"/>
	<circle class="st0" cx="25.6" cy="48.6" r="1"/>
	<circle class="st0" cx="22.3" cy="48.6" r="1"/>
	<circle class="st0" cx="117.6" cy="45.3" r="1"/>
	<circle class="st0" cx="114.3" cy="45.3" r="1"/>
	<circle class="st0" cx="111" cy="45.3" r="1"/>
	<circle class="st0" cx="107.7" cy="45.3" r="1"/>
	<circle class="st0" cx="104.4" cy="45.3" r="1"/>
	<circle class="st0" cx="101.2" cy="45.3" r="1"/>
	<circle class="st0" cx="97.9" cy="45.3" r="1"/>
	<circle class="st0" cx="94.6" cy="45.3" r="1"/>
	<circle class="st0" cx="91.3" cy="45.3" r="1"/>
	<circle class="st0" cx="88" cy="45.3" r="1"/>
	<circle class="st0" cx="84.7" cy="45.3" r="1"/>
	<circle class="st0" cx="81.4" cy="45.3" r="1"/>
	<circle class="st0" cx="78.2" cy="45.3" r="1"/>
	<circle class="st0" cx="74.9" cy="45.3" r="1"/>
	<circle class="st0" cx="71.6" cy="45.3" r="1"/>
	<circle class="st0" cx="68.3" cy="45.3" r="1"/>
	<circle class="st0" cx="65" cy="45.3" r="1"/>
	<circle class="st0" cx="61.7" cy="45.3" r="1"/>
	<circle class="st0" cx="58.5" cy="45.3" r="1"/>
	<circle class="st0" cx="55.2" cy="45.3" r="1"/>
	<circle class="st0" cx="48.6" cy="45.3" r="1"/>
	<circle class="st0" cx="32.2" cy="45.3" r="1"/>
	<circle class="st0" cx="28.9" cy="45.3" r="1"/>
	<circle class="st0" cx="19.1" cy="45.3" r="1"/>
	<circle class="st0" cx="15.8" cy="45.3" r="1"/>
	<circle class="st0" cx="117.6" cy="42" r="1"/>
	<circle class="st0" cx="114.3" cy="42" r="1"/>
	<circle class="st0" cx="111" cy="42" r="1"/>
	<circle class="st0" cx="107.7" cy="42" r="1"/>
	<circle class="st0" cx="104.4" cy="42" r="1"/>
	<circle class="st0" cx="101.2" cy="42" r="1"/>
	<circle class="st0" cx="97.9" cy="42" r="1"/>
	<circle class="st0" cx="94.6" cy="42" r="1"/>
	<circle class="st0" cx="91.3" cy="42" r="1"/>
	<circle class="st0" cx="88" cy="42" r="1"/>
	<circle class="st0" cx="84.7" cy="42" r="1"/>
	<circle class="st0" cx="81.4" cy="42" r="1"/>
	<circle class="st0" cx="78.2" cy="42" r="1"/>
	<circle class="st0" cx="74.9" cy="42" r="1"/>
	<circle class="st0" cx="71.6" cy="42" r="1"/>
	<circle class="st0" cx="68.3" cy="42" r="1"/>
	<circle class="st0" cx="65" cy="42" r="1"/>
	<circle class="st0" cx="58.5" cy="42" r="1"/>
	<circle class="st0" cx="55.2" cy="42" r="1"/>
	<circle class="st0" cx="51.9" cy="42" r="1"/>
	<circle class="st0" cx="45.3" cy="42" r="1"/>
	<circle class="st0" cx="32.2" cy="42" r="1"/>
	<circle class="st0" cx="19.1" cy="42" r="1"/>
	<circle class="st0" cx="12.5" cy="42" r="1"/>
	<circle class="st0" cx="9.2" cy="42" r="1"/>
	<circle class="st0" cx="117.6" cy="38.7" r="1"/>
	<circle class="st0" cx="114.3" cy="38.7" r="1"/>
	<circle class="st0" cx="111" cy="38.7" r="1"/>
	<circle class="st0" cx="107.7" cy="38.7" r="1"/>
	<circle class="st0" cx="104.4" cy="38.7" r="1"/>
	<circle class="st0" cx="101.2" cy="38.7" r="1"/>
	<circle class="st0" cx="97.9" cy="38.7" r="1"/>
	<circle class="st0" cx="94.6" cy="38.7" r="1"/>
	<circle class="st0" cx="91.3" cy="38.7" r="1"/>
	<circle class="st0" cx="88" cy="38.7" r="1"/>
	<circle class="st0" cx="84.7" cy="38.7" r="1"/>
	<circle class="st0" cx="81.4" cy="38.7" r="1"/>
	<circle class="st0" cx="78.2" cy="38.7" r="1"/>
	<circle class="st0" cx="74.9" cy="38.7" r="1"/>
	<circle class="st0" cx="71.6" cy="38.7" r="1"/>
	<circle class="st0" cx="68.3" cy="38.7" r="1"/>
	<circle class="st0" cx="65" cy="38.7" r="1"/>
	<circle class="st0" cx="61.7" cy="38.7" r="1"/>
	<circle class="st0" cx="58.5" cy="38.7" r="1"/>
	<circle class="st0" cx="55.2" cy="38.7" r="1"/>
	<circle class="st0" cx="51.9" cy="38.7" r="1"/>
	<circle class="st0" cx="48.6" cy="38.7" r="1"/>
	<circle class="st0" cx="45.3" cy="38.7" r="1"/>
	<circle class="st0" cx="38.8" cy="38.7" r="1"/>
	<circle class="st0" cx="25.6" cy="38.7" r="1"/>
	<circle class="st0" cx="19.1" cy="38.7" r="1"/>
	<circle class="st0" cx="9.2" cy="38.7" r="1"/>
	<circle class="st0" cx="117.6" cy="35.4" r="1"/>
	<circle class="st0" cx="114.3" cy="35.4" r="1"/>
	<circle class="st0" cx="111" cy="35.4" r="1"/>
	<circle class="st0" cx="107.7" cy="35.4" r="1"/>
	<circle class="st0" cx="104.4" cy="35.4" r="1"/>
	<circle class="st0" cx="101.2" cy="35.4" r="1"/>
	<circle class="st0" cx="97.9" cy="35.4" r="1"/>
	<circle class="st0" cx="94.6" cy="35.4" r="1"/>
	<circle class="st0" cx="91.3" cy="35.4" r="1"/>
	<circle class="st0" cx="88" cy="35.4" r="1"/>
	<circle class="st0" cx="84.7" cy="35.4" r="1"/>
	<circle class="st0" cx="81.4" cy="35.4" r="1"/>
	<circle class="st0" cx="78.2" cy="35.4" r="1"/>
	<circle class="st0" cx="74.9" cy="35.4" r="1"/>
	<circle class="st0" cx="71.6" cy="35.4" r="1"/>
	<circle class="st0" cx="68.3" cy="35.4" r="1"/>
	<circle class="st0" cx="65" cy="35.4" r="1"/>
	<circle class="st0" cx="61.7" cy="35.4" r="1"/>
	<circle class="st0" cx="58.5" cy="35.4" r="1"/>
	<circle class="st0" cx="55.2" cy="35.4" r="1"/>
	<circle class="st0" cx="42" cy="35.4" r="1"/>
	<circle class="st0" cx="22.3" cy="35.4" r="1"/>
	<circle class="st0" cx="19.1" cy="35.4" r="1"/>
	<circle class="st0" cx="15.8" cy="35.4" r="1"/>
	<circle class="st0" cx="12.5" cy="35.4" r="1"/>
	<circle class="st0" cx="9.2" cy="35.4" r="1"/>
	<circle class="st0" cx="117.6" cy="32.1" r="1"/>
	<circle class="st0" cx="114.3" cy="32.1" r="1"/>
	<circle class="st0" cx="111" cy="32.1" r="1"/>
	<circle class="st0" cx="107.7" cy="32.1" r="1"/>
	<circle class="st0" cx="104.4" cy="32.1" r="1"/>
	<circle class="st0" cx="101.2" cy="32.1" r="1"/>
	<circle class="st0" cx="97.9" cy="32.1" r="1"/>
	<circle class="st0" cx="94.6" cy="32.1" r="1"/>
	<circle class="st0" cx="88" cy="32.1" r="1"/>
	<circle class="st0" cx="84.7" cy="32.1" r="1"/>
	<circle class="st0" cx="81.4" cy="32.1" r="1"/>
	<circle class="st0" cx="78.2" cy="32.1" r="1"/>
	<circle class="st0" cx="74.9" cy="32.1" r="1"/>
	<circle class="st0" cx="71.6" cy="32.1" r="1"/>
	<circle class="st0" cx="68.3" cy="32.1" r="1"/>
	<circle class="st0" cx="65" cy="32.1" r="1"/>
	<circle class="st0" cx="51.9" cy="32.1" r="1"/>
	<circle class="st0" cx="48.6" cy="32.1" r="1"/>
	<circle class="st0" cx="42" cy="32.1" r="1"/>
	<circle class="st0" cx="19.1" cy="32.1" r="1"/>
	<circle class="st0" cx="117.6" cy="28.9" r="1"/>
	<circle class="st0" cx="114.3" cy="28.9" r="1"/>
	<circle class="st0" cx="111" cy="28.9" r="1"/>
	<circle class="st0" cx="107.7" cy="28.9" r="1"/>
	<circle class="st0" cx="104.4" cy="28.9" r="1"/>
	<circle class="st0" cx="101.2" cy="28.9" r="1"/>
	<circle class="st0" cx="97.9" cy="28.9" r="1"/>
	<circle class="st0" cx="94.6" cy="28.9" r="1"/>
	<circle class="st0" cx="91.3" cy="28.9" r="1"/>
	<circle class="st0" cx="88" cy="28.9" r="1"/>
	<circle class="st0" cx="84.7" cy="28.9" r="1"/>
	<circle class="st0" cx="81.4" cy="28.9" r="1"/>
	<circle class="st0" cx="78.2" cy="28.9" r="1"/>
	<circle class="st0" cx="74.9" cy="28.9" r="1"/>
	<circle class="st0" cx="71.6" cy="28.9" r="1"/>
	<circle class="st0" cx="68.3" cy="28.9" r="1"/>
	<circle class="st0" cx="65" cy="28.9" r="1"/>
	<circle class="st0" cx="55.2" cy="28.9" r="1"/>
	<circle class="st0" cx="51.9" cy="28.9" r="1"/>
	<circle class="st0" cx="19.1" cy="28.9" r="1"/>
	<circle class="st0" cx="117.6" cy="25.6" r="1"/>
	<circle class="st0" cx="114.3" cy="25.6" r="1"/>
	<circle class="st0" cx="111" cy="25.6" r="1"/>
	<circle class="st0" cx="107.7" cy="25.6" r="1"/>
	<circle class="st0" cx="104.4" cy="25.6" r="1"/>
	<circle class="st0" cx="101.2" cy="25.6" r="1"/>
	<circle class="st0" cx="97.9" cy="25.6" r="1"/>
	<circle class="st0" cx="94.6" cy="25.6" r="1"/>
	<circle class="st0" cx="91.3" cy="25.6" r="1"/>
	<circle class="st0" cx="88" cy="25.6" r="1"/>
	<circle class="st0" cx="84.7" cy="25.6" r="1"/>
	<circle class="st0" cx="81.4" cy="25.6" r="1"/>
	<circle class="st0" cx="78.2" cy="25.6" r="1"/>
	<circle class="st0" cx="74.9" cy="25.6" r="1"/>
	<circle class="st0" cx="71.6" cy="25.6" r="1"/>
	<circle class="st0" cx="68.3" cy="25.6" r="1"/>
	<circle class="st0" cx="65" cy="25.6" r="1"/>
	<circle class="st0" cx="55.2" cy="25.6" r="1"/>
	<circle class="st0" cx="51.9" cy="25.6" r="1"/>
	<circle class="st0" cx="48.6" cy="25.6" r="1"/>
	<circle class="st0" cx="42" cy="25.6" r="1"/>
	<circle class="st0" cx="38.8" cy="25.6" r="1"/>
	<circle class="st0" cx="117.6" cy="22.3" r="1"/>
	<circle class="st0" cx="114.3" cy="22.3" r="1"/>
	<circle class="st0" cx="111" cy="22.3" r="1"/>
	<circle class="st0" cx="107.7" cy="22.3" r="1"/>
	<circle class="st0" cx="104.4" cy="22.3" r="1"/>
	<circle class="st0" cx="101.2" cy="22.3" r="1"/>
	<circle class="st0" cx="97.9" cy="22.3" r="1"/>
	<circle class="st0" cx="94.6" cy="22.3" r="1"/>
	<circle class="st0" cx="91.3" cy="22.3" r="1"/>
	<circle class="st0" cx="88" cy="22.3" r="1"/>
	<circle class="st0" cx="84.7" cy="22.3" r="1"/>
	<circle class="st0" cx="81.4" cy="22.3" r="1"/>
	<circle class="st0" cx="78.2" cy="22.3" r="1"/>
	<circle class="st0" cx="74.9" cy="22.3" r="1"/>
	<circle class="st0" cx="71.6" cy="22.3" r="1"/>
	<circle class="st0" cx="68.3" cy="22.3" r="1"/>
	<circle class="st0" cx="65" cy="22.3" r="1"/>
	<circle class="st0" cx="58.5" cy="22.3" r="1"/>
	<circle class="st0" cx="55.2" cy="22.3" r="1"/>
	<circle class="st0" cx="51.9" cy="22.3" r="1"/>
	<circle class="st0" cx="48.6" cy="22.3" r="1"/>
	<circle class="st0" cx="42" cy="22.3" r="1"/>
	<circle class="st0" cx="38.8" cy="22.3" r="1"/>
	<circle class="st0" cx="117.6" cy="19" r="1"/>
	<circle class="st0" cx="114.3" cy="19" r="1"/>
	<circle class="st0" cx="111" cy="19" r="1"/>
	<circle class="st0" cx="107.7" cy="19" r="1"/>
	<circle class="st0" cx="104.4" cy="19" r="1"/>
	<circle class="st0" cx="101.2" cy="19" r="1"/>
	<circle class="st0" cx="97.9" cy="19" r="1"/>
	<circle class="st0" cx="94.6" cy="19" r="1"/>
	<circle class="st0" cx="91.3" cy="19" r="1"/>
	<circle class="st0" cx="88" cy="19" r="1"/>
	<circle class="st0" cx="84.7" cy="19" r="1"/>
	<circle class="st0" cx="81.4" cy="19" r="1"/>
	<circle class="st0" cx="78.2" cy="19" r="1"/>
	<circle class="st0" cx="74.9" cy="19" r="1"/>
	<circle class="st0" cx="71.6" cy="19" r="1"/>
	<circle class="st0" cx="68.3" cy="19" r="1"/>
	<circle class="st0" cx="65" cy="19" r="1"/>
	<circle class="st0" cx="55.2" cy="19" r="1"/>
	<circle class="st0" cx="51.9" cy="19" r="1"/>
	<circle class="st0" cx="48.6" cy="19" r="1"/>
	<circle class="st0" cx="45.3" cy="19" r="1"/>
	<circle class="st0" cx="42" cy="19" r="1"/>
	<circle class="st0" cx="38.8" cy="19" r="1"/>
	<circle class="st0" cx="117.6" cy="15.7" r="1"/>
	<circle class="st0" cx="114.3" cy="15.7" r="1"/>
	<circle class="st0" cx="111" cy="15.7" r="1"/>
	<circle class="st0" cx="107.7" cy="15.7" r="1"/>
	<circle class="st0" cx="104.4" cy="15.7" r="1"/>
	<circle class="st0" cx="101.2" cy="15.7" r="1"/>
	<circle class="st0" cx="97.9" cy="15.7" r="1"/>
	<circle class="st0" cx="94.6" cy="15.7" r="1"/>
	<circle class="st0" cx="91.3" cy="15.7" r="1"/>
	<circle class="st0" cx="88" cy="15.7" r="1"/>
	<circle class="st0" cx="84.7" cy="15.7" r="1"/>
	<circle class="st0" cx="81.4" cy="15.7" r="1"/>
	<circle class="st0" cx="78.2" cy="15.7" r="1"/>
	<circle class="st0" cx="74.9" cy="15.7" r="1"/>
	<circle class="st0" cx="71.6" cy="15.7" r="1"/>
	<circle class="st0" cx="68.3" cy="15.7" r="1"/>
	<circle class="st0" cx="65" cy="15.7" r="1"/>
	<circle class="st0" cx="58.5" cy="15.7" r="1"/>
	<circle class="st0" cx="55.2" cy="15.7" r="1"/>
	<circle class="st0" cx="51.9" cy="15.7" r="1"/>
	<circle class="st0" cx="48.6" cy="15.7" r="1"/>
	<circle class="st0" cx="45.3" cy="15.7" r="1"/>
	<circle class="st0" cx="117.6" cy="12.4" r="1"/>
	<circle class="st0" cx="114.3" cy="12.4" r="1"/>
	<circle class="st0" cx="111" cy="12.4" r="1"/>
	<circle class="st0" cx="107.7" cy="12.4" r="1"/>
	<circle class="st0" cx="104.4" cy="12.4" r="1"/>
	<circle class="st0" cx="101.2" cy="12.4" r="1"/>
	<circle class="st0" cx="97.9" cy="12.4" r="1"/>
	<circle class="st0" cx="94.6" cy="12.4" r="1"/>
	<circle class="st0" cx="91.3" cy="12.4" r="1"/>
	<circle class="st0" cx="84.7" cy="12.4" r="1"/>
	<circle class="st0" cx="81.4" cy="12.4" r="1"/>
	<circle class="st0" cx="78.2" cy="12.4" r="1"/>
	<circle class="st0" cx="74.9" cy="12.4" r="1"/>
	<circle class="st0" cx="71.6" cy="12.4" r="1"/>
	<circle class="st0" cx="68.3" cy="12.4" r="1"/>
	<circle class="st0" cx="61.7" cy="12.4" r="1"/>
	<circle class="st0" cx="58.5" cy="12.4" r="1"/>
	<circle class="st0" cx="55.2" cy="12.4" r="1"/>
	<circle class="st0" cx="51.9" cy="12.4" r="1"/>
	<circle class="st0" cx="48.6" cy="12.4" r="1"/>
	<circle class="st0" cx="117.6" cy="9.2" r="1"/>
	<circle class="st0" cx="114.3" cy="9.2" r="1"/>
	<circle class="st0" cx="111" cy="9.2" r="1"/>
	<circle class="st0" cx="107.7" cy="9.2" r="1"/>
	<circle class="st0" cx="104.4" cy="9.2" r="1"/>
	<circle class="st0" cx="101.2" cy="9.2" r="1"/>
	<circle class="st0" cx="94.6" cy="9.2" r="1"/>
	<circle class="st0" cx="91.3" cy="9.2" r="1"/>
	<circle class="st0" cx="88" cy="9.2" r="1"/>
	<circle class="st0" cx="84.7" cy="9.2" r="1"/>
	<circle class="st0" cx="81.4" cy="9.2" r="1"/>
	<circle class="st0" cx="78.2" cy="9.2" r="1"/>
	<circle class="st0" cx="74.9" cy="9.2" r="1"/>
	<circle class="st0" cx="71.6" cy="9.2" r="1"/>
	<circle class="st0" cx="68.3" cy="9.2" r="1"/>
	<circle class="st0" cx="65" cy="9.2" r="1"/>
	<circle class="st0" cx="61.7" cy="9.2" r="1"/>
	<circle class="st0" cx="58.5" cy="9.2" r="1"/>
	<circle class="st0" cx="55.2" cy="9.2" r="1"/>
	<circle class="st0" cx="51.9" cy="9.2" r="1"/>
	<circle class="st0" cx="117.6" cy="5.9" r="1"/>
	<circle class="st0" cx="114.3" cy="5.9" r="1"/>
	<circle class="st0" cx="111" cy="5.9" r="1"/>
	<circle class="st0" cx="101.2" cy="5.9" r="1"/>
	<circle class="st0" cx="91.3" cy="5.9" r="1"/>
	<circle class="st0" cx="88" cy="5.9" r="1"/>
	<circle class="st0" cx="84.7" cy="5.9" r="1"/>
	<circle class="st0" cx="81.4" cy="5.9" r="1"/>
	<circle class="st0" cx="78.2" cy="5.9" r="1"/>
	<circle class="st0" cx="74.9" cy="5.9" r="1"/>
	<circle class="st0" cx="71.6" cy="5.9" r="1"/>
	<circle class="st0" cx="68.3" cy="5.9" r="1"/>
	<circle class="st0" cx="65" cy="5.9" r="1"/>
	<circle class="st0" cx="61.7" cy="5.9" r="1"/>
	<circle class="st0" cx="58.5" cy="5.9" r="1"/>
	<circle class="st0" cx="55.2" cy="5.9" r="1"/>
	<circle class="st0" cx="78.2" cy="2.6" r="1"/>
	<circle class="st0" cx="74.9" cy="2.6" r="1"/>
	<circle class="st0" cx="71.6" cy="2.6" r="1"/>
	<circle class="st0" cx="68.3" cy="2.6" r="1"/>
	<circle class="st0" cx="65" cy="2.6" r="1"/>
	<circle class="st0" cx="61.7" cy="2.6" r="1"/>
	<circle class="st0" cx="28.9" cy="65" r="1"/>
	<circle class="st0" cx="22.3" cy="42" r="1"/>
	<circle class="st0" cx="45.3" cy="25.6" r="1"/>
	<circle class="st0" cx="48.6" cy="28.9" r="1"/>
	<circle class="st0" cx="12.5" cy="38.7" r="1"/>
	<circle class="st0" cx="22.3" cy="38.7" r="1"/>
	<circle class="st0" cx="45.3" cy="35.4" r="1"/>
	<circle class="st0" cx="9.2" cy="65" r="1"/>
	<circle class="st0" cx="15.8" cy="68.3" r="1"/>
	<circle class="st0" cx="81.4" cy="68.3" r="1"/>
	<circle class="st0" cx="5.9" cy="71.5" r="1"/>
	<circle class="st0" cx="71.6" cy="74.8" r="1"/>
	<circle class="st0" cx="97.9" cy="88" r="1"/>
	<circle class="st0" cx="55.2" cy="81.4" r="1"/>
	<circle class="st0" cx="48.6" cy="65" r="1"/>
	<circle class="st0" cx="25.6" cy="65" r="1"/>
	<circle class="st0" cx="45.3" cy="61.7" r="1"/>
	<circle class="st0" cx="51.9" cy="58.4" r="1"/>
	<circle class="st0" cx="45.3" cy="55.1" r="1"/>
	<circle class="st0" cx="42" cy="55.1" r="1"/>
	<circle class="st0" cx="35.5" cy="55.1" r="1"/>
	<circle class="st0" cx="61.7" cy="51.8" r="1"/>
	<circle class="st0" cx="55.2" cy="51.8" r="1"/>
	<circle class="st0" cx="51.9" cy="51.8" r="1"/>
	<circle class="st0" cx="48.6" cy="51.8" r="1"/>
	<circle class="st0" cx="42" cy="51.8" r="1"/>
	<circle class="st0" cx="38.8" cy="51.8" r="1"/>
	<circle class="st0" cx="42" cy="48.6" r="1"/>
	<circle class="st0" cx="32.2" cy="48.6" r="1"/>
	<circle class="st0" cx="51.9" cy="45.3" r="1"/>
	<circle class="st0" cx="45.3" cy="45.3" r="1"/>
	<circle class="st0" cx="38.8" cy="45.3" r="1"/>
	<circle class="st0" cx="35.5" cy="45.3" r="1"/>
	<circle class="st0" cx="61.7" cy="42" r="1"/>
	<circle class="st0" cx="48.6" cy="42" r="1"/>
	<circle class="st0" cx="42" cy="42" r="1"/>
	<circle class="st0" cx="38.8" cy="42" r="1"/>
	<circle class="st0" cx="35.5" cy="42" r="1"/>
	<circle class="st0" cx="25.6" cy="42" r="1"/>
	<circle class="st0" cx="42" cy="38.7" r="1"/>
	<circle class="st0" cx="91.3" cy="32.1" r="1"/>
	<circle class="st0" cx="58.5" cy="25.6" r="1"/>
	<circle class="st0" cx="45.3" cy="22.3" r="1"/>
	<circle class="st0" cx="48.6" cy="48.6" r="1"/>
	<circle class="st0" cx="42" cy="45.3" r="1"/>
</g>
</svg>
